<svg xmlns="http://www.w3.org/2000/svg" width="1200" height="630" viewBox="0 0 1200 630" role="img" aria-labelledby="title desc">
  <title id="title">Shida and Ansab — Wedding Invitation</title>
  <desc id="desc">Nikah on Saturday, 10 October 2026, and Wedding Reception on Sunday, 11 October 2026.</desc>
  <defs>
    <linearGradient id="bg" x1="0" y1="0" x2="1" y2="1">
      <stop offset="0" stop-color="#3d1822"/>
      <stop offset="0.55" stop-color="#5a2734"/>
      <stop offset="1" stop-color="#723645"/>
    </linearGradient>
    <pattern id="pattern" width="84" height="84" patternUnits="userSpaceOnUse" patternTransform="rotate(30)">
      <path d="M0 42H84M42 0V84" stroke="#f0d5a3" stroke-opacity=".05"/>
    </pattern>
  </defs>
  <rect width="1200" height="630" fill="url(#bg)"/>
  <rect width="1200" height="630" fill="url(#pattern)"/>
  <rect x="30" y="30" width="1140" height="570" fill="none" stroke="#e0be88" stroke-opacity=".55"/>
  <path d="M782 510V232c0-132 82-196 178-196s178 64 178 196v278" fill="#fffdfa" fill-opacity=".05" stroke="#f0d5a3" stroke-opacity=".42" stroke-width="2"/>
  <circle cx="958" cy="276" r="126" fill="none" stroke="#f0d5a3" stroke-opacity=".16"/>
  <circle cx="958" cy="276" r="98" fill="none" stroke="#f0d5a3" stroke-opacity=".12"/>
  <text x="958" y="300" text-anchor="middle" font-family="Georgia, serif" font-size="104" font-weight="700" fill="#f0d5a3" fill-opacity=".75">S&amp;A</text>

  <text x="92" y="106" font-family="Arial, sans-serif" font-size="18" font-weight="700" letter-spacing="5" fill="#f0d5a3">A BLESSED INVITATION</text>
  <text x="88" y="248" font-family="Georgia, serif" font-size="102" font-weight="700" fill="#fffdfa">Shida</text>
  <text x="390" y="248" font-family="Georgia, serif" font-size="58" font-style="italic" fill="#e0be88">&amp;</text>
  <text x="88" y="348" font-family="Georgia, serif" font-size="102" font-weight="700" fill="#f0d5a3">Ansab</text>
  <line x1="90" y1="395" x2="680" y2="395" stroke="#e0be88" stroke-opacity=".6"/>
  <text x="92" y="440" font-family="Arial, sans-serif" font-size="18" font-weight="700" letter-spacing="4" fill="#f0d5a3">NIKAH &amp; WEDDING RECEPTION</text>
  <text x="92" y="492" font-family="Georgia, serif" font-size="34" fill="#fffdfa">Nikah · Saturday, 10 October 2026</text>
  <text x="92" y="538" font-family="Arial, sans-serif" font-size="20" letter-spacing="1" fill="#fffdfa" fill-opacity=".85">Reception · Sunday, 11 October 2026</text>
</svg>
